# xmcd
#
# Track frame offsets:
#	150
#	14208
#	26857
#	42680
#	59573
#	76816
#	94731
#	107880
#	122800
#	138925
#	155434
#	172360
#	188067
#	203492
#	218878
#	233923
#	248913
#	263445
#	276774
#	294972
#	304085
#	320018
#	333086
#
# Disc length: 4613 seconds
#
# Revision: 1
# Processed by: cddbd v1.4PL0 Copyright (c) Steve Scherf et al.
# Submitted via: EasyCDDAExtractor 6.2.0.3
#
DISCID=56120317
DTITLE=Campeões Do Forró - Vol 03
DYEAR=2003
DGENRE=Forró
TTITLE0=Patricinha - Forró Saborear
TTITLE1=Desfaz As Malas - Banda Calypso
TTITLE2=Veneno - Calcinha Preta 
TTITLE3=O Encanto - Magníficos
TTITLE4=A Rainha E O Rei - Noda De Caju
TTITLE5=Cara Metade - Moleca 100 Vergonha
TTITLE6=Além Do Horizonte - Banda Líbanos
TTITLE7=Aonde Você Está - Forrozão Tropycália
TTITLE8=Amor Ou Amizade - Gatinha Manhosa
TTITLE9=Chuva De Paixão, Estrela Dourada - Mulheres Perdidas
TTITLE10=njo - Garota Safada
TTITLE11=Depois Das Seis - Charlys Da Rocinha
TTITLE12=Mensagem De Amor - Água De Cheiro
TTITLE13=Não É Nada Disso (Bicicleta) - Aviões Do Forró
TTITLE14=Pode Botar (Resposta Da Caipira) - França and F Rasgo De Lua
TTITLE15=Virá o Zoi 2 - Kraskes De Forró
TTITLE16=Cachorrinho (Meu Homem Animal) - Capital Do Sol
TTITLE17=Palhaço - Forró Zabumba
TTITLE18=Me Dá Um Beijo, Coração - Dorgival Dantas
TTITLE19=Melô Do Dá Dá Dá - Bakanas Do Brega
TTITLE20=Não Para Não - Billy X
TTITLE21=Eu Ainda Te Amo - Robério E Seus Teclados
TTITLE22=Nem Uma Noite Mais- Carlos Mais
EXTD=
EXTT0=
EXTT1=
EXTT2=
EXTT3=
EXTT4=
EXTT5=
EXTT6=
EXTT7=
EXTT8=
EXTT9=
EXTT10=
EXTT11=
EXTT12=
EXTT13=
EXTT14=
EXTT15=
EXTT16=
EXTT17=
EXTT18=
EXTT19=
EXTT20=
EXTT21=
EXTT22=
PLAYORDER=
